<?xml version="1.0" encoding="utf-8"?>
<!-- Generator: Adobe Illustrator 16.0.0, SVG Export Plug-In . SVG Version: 6.00 Build 0)  -->
<!DOCTYPE svg PUBLIC "-//W3C//DTD SVG 1.1//EN" "http://www.w3.org/Graphics/SVG/1.1/DTD/svg11.dtd">
<svg version="1.1" id="Capa_1" xmlns="http://www.w3.org/2000/svg" xmlns:xlink="http://www.w3.org/1999/xlink" x="0px" y="0px"
	 width="595.28px" height="841.89px" viewBox="0 0 595.28 841.89" enable-background="new 0 0 595.28 841.89" xml:space="preserve">
<path fill="#010002" stroke="#000000" stroke-miterlimit="10" d="M264.406,292.208c18.563-57.556,80.268-89.167,137.826-70.604
	c1.26,0.406,2.504,0.841,3.74,1.289c-12.271-27.237-35.571-49.38-66.241-59.272c-57.555-18.563-119.262,13.047-137.824,70.603
	c-18.156,56.295,11.691,116.554,66.863,136.536C258.014,346.885,255.734,319.094,264.406,292.208z"/>
<path fill="#010002" stroke="#000000" stroke-miterlimit="10" d="M257.858,408.924c59.291-11.906,97.707-69.622,85.801-128.914
	c-0.261-1.298-0.552-2.584-0.856-3.862c25.668,15.284,45.021,40.948,51.364,72.543c11.906,59.292-26.508,117.008-85.799,128.911
	c-57.994,11.648-114.472-24.853-128.059-81.937C202.81,409.063,230.161,414.486,257.858,408.924z"/>
<g>
	<path d="M223.931,523.49c0,5.623-2.454,9.165-7.361,10.627l8.921,12.383h-7.313l-8.141-11.456h-7.556V546.5h-5.753v-34.076h12.675
		c5.199,0,8.921,0.877,11.164,2.633C222.81,516.812,223.931,519.623,223.931,523.49z M216.277,528.316
		c1.17-1.007,1.755-2.624,1.755-4.851c0-2.226-0.602-3.754-1.804-4.583c-1.203-0.828-3.348-1.243-6.435-1.243h-7.313v12.188h7.166
		C212.897,529.827,215.107,529.324,216.277,528.316z"/>
	<path d="M260.737,541.796c-3.445,3.363-7.703,5.045-12.772,5.045c-5.07,0-9.328-1.682-12.772-5.045
		c-3.445-3.364-5.167-7.557-5.167-12.578c0-5.021,1.722-9.214,5.167-12.577c3.444-3.363,7.702-5.046,12.772-5.046
		c5.07,0,9.327,1.683,12.772,5.046c3.444,3.363,5.167,7.557,5.167,12.577C265.905,534.239,264.182,538.432,260.737,541.796z
		 M256.521,520.468c-2.324-2.405-5.176-3.607-8.556-3.607c-3.38,0-6.232,1.202-8.556,3.607c-2.324,2.405-3.486,5.322-3.486,8.75
		c0,3.43,1.162,6.347,3.486,8.751c2.323,2.405,5.175,3.607,8.556,3.607c3.38,0,6.231-1.202,8.556-3.607
		c2.323-2.404,3.485-5.321,3.485-8.751C260.006,525.79,258.844,522.873,256.521,520.468z"/>
	<path d="M278.921,546.5h-5.753v-34.076h8.97l10.286,21.401l10.287-21.401h8.921V546.5h-5.753v-26.617l-11.895,23.644h-3.217
		l-11.846-23.644V546.5z"/>
	<path d="M325.915,538.749l-3.412,7.751h-6.143l15.015-34.076h6.143l15.016,34.076h-6.143l-3.413-7.751H325.915z M340.638,533.435
		l-6.191-14.04l-6.191,14.04H340.638z M337.079,509.548h-4.973l5.168-7.069l5.752,2.389L337.079,509.548z"/>
	<path d="M382.806,512.424h5.753V546.5h-6.24l-19.305-24.862V546.5h-5.753v-34.076h5.753l19.792,25.447V512.424z"/>
</g>
</svg>
